{
  "source": "C:\\Users\\Peter\\Desktop\\stuff\\MIUN\\quantitative_research\\video_compression\\videos\\UVG\\Beauty_1920x1080_120fps_420_8bit_YUV.y4m",
  "output": "C:\\Users\\Peter\\Desktop\\stuff\\MIUN\\quantitative_research\\video_compression\\compressed_videos\\UVG\\vp9\\1.5\\Beauty_1920x1080_120fps_420_8bit_YUV_vp9.webm",
  "codec": "vp9",
  "ok": "[yuv4mpegpipe @ 000001546a935280] Stream #0: not enough frames to estimate rate; consider increasing probesize\nInput #0, yuv4mpegpipe, from 'C:\\Users\\Peter\\Desktop\\stuff\\MIUN\\quantitative_research\\video_compression\\videos\\UVG\\Beauty_1920x1080_120fps_420_8bit_YUV.y4m':\n  Duration: 00:00:05.00, start: 0.000000, bitrate: 2985989 kb/s\n  Stream #0:0: Video: rawvideo (I420 / 0x30323449), yuv420p(progressive), 1920x1080, 120 fps, 120 tbr, 120 tbn\n[out#0/webm @ 000001546a938e00] Codec AVOption b:a (set bitrate (in bits/s)) has not been used for any stream. The most likely reason is either wrong type (e.g. a video option with no video streams) or that it is a private option of some decoder which was not actually used for any stream.\nStream mapping:\n  Stream #0:0 -> #0:0 (rawvideo (native) -> vp9 (libvpx-vp9))\nPress [q] to stop, [?] for help\n[libvpx-vp9 @ 000001546a93bf80] v1.15.2-100-g40561f514\nOutput #0, webm, to 'C:\\Users\\Peter\\Desktop\\stuff\\MIUN\\quantitative_research\\video_compression\\compressed_videos\\UVG\\vp9\\1.5\\Beauty_1920x1080_120fps_420_8bit_YUV_vp9.webm':\n  Metadata:\n    encoder         : Lavf62.3.100\n  Stream #0:0: Video: vp9, yuv420p(tv, progressive), 1920x1080, q=2-31, 1500 kb/s, 120 fps, 1k tbn\n    Metadata:\n      encoder         : Lavc62.11.100 libvpx-vp9\n    Side data:\n      cpb: bitrate max/min/avg: 0/0/0 buffer size: 1500000 vbv_delay: N/A\nframe=    4 fps=0.0 q=63.0 size=       0KiB time=00:00:00.03 bitrate= 115.4kbits/s speed=0.0636x elapsed=0:00:00.52    \nframe=   15 fps= 15 q=56.0 size=       0KiB time=00:00:00.12 bitrate=  30.8kbits/s speed=0.121x elapsed=0:00:01.02    \nframe=   24 fps= 15 q=57.0 size=       0KiB time=00:00:00.20 bitrate=  19.2kbits/s speed=0.128x elapsed=0:00:01.55    \nframe=   33 fps= 16 q=56.0 size=       0KiB time=00:00:00.27 bitrate=  14.0kbits/s speed=0.133x elapsed=0:00:02.07    \nframe=   44 fps= 17 q=56.0 size=       0KiB time=00:00:00.36 bitrate=  10.5kbits/s speed=0.141x elapsed=0:00:02.60    \nframe=   54 fps= 17 q=56.0 size=       0KiB time=00:00:00.45 bitrate=   8.6kbits/s speed=0.145x elapsed=0:00:03.11    \nframe=   66 fps= 18 q=54.0 size=       0KiB time=00:00:00.55 bitrate=   7.0kbits/s speed=0.152x elapsed=0:00:03.62    \nframe=   77 fps= 19 q=55.0 size=       0KiB time=00:00:00.64 bitrate=   6.0kbits/s speed=0.155x elapsed=0:00:04.15    \nframe=   90 fps= 19 q=56.0 size=       0KiB time=00:00:00.75 bitrate=   5.1kbits/s speed=0.161x elapsed=0:00:04.66    \nframe=  101 fps= 20 q=56.0 size=       0KiB time=00:00:00.84 bitrate=   4.6kbits/s speed=0.163x elapsed=0:00:05.17    \nframe=  114 fps= 20 q=58.0 size=       0KiB time=00:00:00.95 bitrate=   4.1kbits/s speed=0.167x elapsed=0:00:05.68    \nframe=  125 fps= 20 q=58.0 size=       0KiB time=00:00:01.04 bitrate=   3.7kbits/s speed=0.168x elapsed=0:00:06.20    \nframe=  138 fps= 21 q=56.0 size=     171KiB time=00:00:01.15 bitrate=1217.7kbits/s speed=0.171x elapsed=0:00:06.72    \nframe=  150 fps= 21 q=55.0 size=     171KiB time=00:00:01.25 bitrate=1120.3kbits/s speed=0.173x elapsed=0:00:07.23    \nframe=  161 fps= 21 q=51.0 size=     171KiB time=00:00:01.34 bitrate=1043.8kbits/s speed=0.173x elapsed=0:00:07.75    \nframe=  173 fps= 21 q=55.0 size=     171KiB time=00:00:01.44 bitrate= 971.4kbits/s speed=0.174x elapsed=0:00:08.26    \nframe=  184 fps= 21 q=54.0 size=     171KiB time=00:00:01.53 bitrate= 913.3kbits/s speed=0.175x elapsed=0:00:08.77    \nframe=  195 fps= 21 q=52.0 size=     171KiB time=00:00:01.62 bitrate= 861.8kbits/s speed=0.175x elapsed=0:00:09.30    \nframe=  206 fps= 21 q=54.0 size=     171KiB time=00:00:01.71 bitrate= 815.8kbits/s speed=0.175x elapsed=0:00:09.81    \nframe=  218 fps= 21 q=57.0 size=     171KiB time=00:00:01.81 bitrate= 770.9kbits/s speed=0.176x elapsed=0:00:10.33    \nframe=  231 fps= 21 q=57.0 size=     171KiB time=00:00:01.92 bitrate= 727.5kbits/s speed=0.178x elapsed=0:00:10.84    \nframe=  243 fps= 21 q=56.0 size=     171KiB time=00:00:02.02 bitrate= 691.6kbits/s speed=0.178x elapsed=0:00:11.36    \nframe=  255 fps= 21 q=54.0 size=     171KiB time=00:00:02.12 bitrate= 659.0kbits/s speed=0.179x elapsed=0:00:11.87    \nframe=  268 fps= 22 q=56.0 size=     256KiB time=00:00:02.23 bitrate= 939.0kbits/s speed=0.18x elapsed=0:00:12.39    \nframe=  279 fps= 22 q=60.0 size=     256KiB time=00:00:02.32 bitrate= 902.0kbits/s speed=0.18x elapsed=0:00:12.90    \nframe=  291 fps= 22 q=58.0 size=     256KiB time=00:00:02.42 bitrate= 864.8kbits/s speed=0.181x elapsed=0:00:13.42    \nframe=  304 fps= 22 q=53.0 size=     256KiB time=00:00:02.53 bitrate= 827.8kbits/s speed=0.182x elapsed=0:00:13.93    \nframe=  316 fps= 22 q=55.0 size=     256KiB time=00:00:02.63 bitrate= 796.4kbits/s speed=0.182x elapsed=0:00:14.45    \nframe=  330 fps= 22 q=55.0 size=     256KiB time=00:00:02.75 bitrate= 762.6kbits/s speed=0.184x elapsed=0:00:14.97    \nframe=  342 fps= 22 q=55.0 size=     256KiB time=00:00:02.85 bitrate= 735.8kbits/s speed=0.184x elapsed=0:00:15.49    \nframe=  354 fps= 22 q=56.0 size=     256KiB time=00:00:02.95 bitrate= 710.9kbits/s speed=0.184x elapsed=0:00:16.00    \nframe=  367 fps= 22 q=56.0 size=     256KiB time=00:00:03.05 bitrate= 685.7kbits/s speed=0.185x elapsed=0:00:16.52    \nframe=  380 fps= 22 q=57.0 size=     256KiB time=00:00:03.16 bitrate= 662.3kbits/s speed=0.186x elapsed=0:00:17.03    \nframe=  393 fps= 22 q=58.0 size=     512KiB time=00:00:03.27 bitrate=1280.7kbits/s speed=0.187x elapsed=0:00:17.54    \nframe=  407 fps= 23 q=57.0 size=     512KiB time=00:00:03.39 bitrate=1236.6kbits/s speed=0.188x elapsed=0:00:18.05    \nframe=  419 fps= 23 q=55.0 size=     512KiB time=00:00:03.49 bitrate=1201.2kbits/s speed=0.188x elapsed=0:00:18.57    \nframe=  431 fps= 23 q=57.0 size=     512KiB time=00:00:03.59 bitrate=1167.8kbits/s speed=0.188x elapsed=0:00:19.10    \nframe=  444 fps= 23 q=59.0 size=     512KiB time=00:00:03.70 bitrate=1133.6kbits/s speed=0.189x elapsed=0:00:19.62    \nframe=  458 fps= 23 q=56.0 size=     512KiB time=00:00:03.81 bitrate=1098.9kbits/s speed=0.19x elapsed=0:00:20.13    \nframe=  471 fps= 23 q=54.0 size=     512KiB time=00:00:03.92 bitrate=1068.6kbits/s speed=0.19x elapsed=0:00:20.66    \nframe=  483 fps= 23 q=55.0 size=     512KiB time=00:00:04.02 bitrate=1042.1kbits/s speed=0.19x elapsed=0:00:21.18    \nframe=  494 fps= 23 q=56.0 size=     512KiB time=00:00:04.11 bitrate=1018.9kbits/s speed=0.19x elapsed=0:00:21.68    \nframe=  506 fps= 23 q=55.0 size=     512KiB time=00:00:04.21 bitrate= 994.7kbits/s speed=0.19x elapsed=0:00:22.20    \nframe=  519 fps= 23 q=55.0 size=     768KiB time=00:00:04.32 bitrate=1454.7kbits/s speed=0.19x elapsed=0:00:22.73    \nframe=  532 fps= 23 q=55.0 size=     768KiB time=00:00:04.43 bitrate=1419.1kbits/s speed=0.191x elapsed=0:00:23.25    \nframe=  543 fps= 23 q=35.0 size=     768KiB time=00:00:04.52 bitrate=1390.4kbits/s speed=0.19x elapsed=0:00:23.76    \nframe=  557 fps= 23 q=56.0 size=     768KiB time=00:00:04.64 bitrate=1355.4kbits/s speed=0.191x elapsed=0:00:24.28    \nframe=  569 fps= 23 q=56.0 size=     768KiB time=00:00:04.74 bitrate=1326.8kbits/s speed=0.191x elapsed=0:00:24.79    \nframe=  576 fps= 23 q=56.0 size=     768KiB time=00:00:04.80 bitrate=1310.7kbits/s speed=0.19x elapsed=0:00:25.31    \nframe=  576 fps= 22 q=56.0 size=     768KiB time=00:00:04.80 bitrate=1310.7kbits/s speed=0.186x elapsed=0:00:25.82    \n[out#0/webm @ 000001546a938e00] video:914KiB audio:0KiB subtitle:0KiB other streams:0KiB global headers:0KiB muxing overhead: 0.516641%\nframe=  600 fps= 23 q=56.0 Lsize=     918KiB time=00:00:05.00 bitrate=1504.5kbits/s speed=0.192x elapsed=0:00:26.04    \n",
  "seconds": 26.128482818603516,
  "probe_out": {}
}